<svg viewBox="0 0 320 200" width="320" height="200" xmlns="http://www.w3.org/2000/svg" role="img" aria-labelledby="titulo-mapa-belo-horizonte">
  <title id="titulo-mapa-belo-horizonte">Mapa meteorológico ilustrativo de Belo Horizonte: parcialmente nublado (dados fictícios).</title>
  <defs>
    <linearGradient id="ceu-mapa-belo-horizonte" x1="0" y1="0" x2="0" y2="1">
      <stop offset="0%" stop-color="#8fd0f0"/>
      <stop offset="100%" stop-color="#5aa8d1"/>
    </linearGradient>
  </defs>
  <rect width="320" height="200" rx="16" fill="url(#ceu-mapa-belo-horizonte)"/>
  <g><line x1="40" y1="130" x2="40" y2="196" stroke="#ffffff" stroke-width="2" opacity="0.25"/><line x1="90" y1="130" x2="90" y2="196" stroke="#ffffff" stroke-width="2" opacity="0.25"/><line x1="150" y1="130" x2="150" y2="196" stroke="#ffffff" stroke-width="2" opacity="0.25"/><line x1="210" y1="130" x2="210" y2="196" stroke="#ffffff" stroke-width="2" opacity="0.25"/><line x1="270" y1="130" x2="270" y2="196" stroke="#ffffff" stroke-width="2" opacity="0.25"/><line x1="16" y1="150" x2="304" y2="150" stroke="#ffffff" stroke-width="2" opacity="0.25"/><line x1="16" y1="168" x2="304" y2="168" stroke="#ffffff" stroke-width="2" opacity="0.25"/><line x1="16" y1="186" x2="304" y2="186" stroke="#ffffff" stroke-width="2" opacity="0.25"/></g>
  <circle cx="142" cy="56" r="16" fill="#ffd166"/><line x1="164.0" y1="56.0" x2="172.0" y2="56.0" stroke="#ffd166" stroke-width="3" stroke-linecap="round"/><line x1="157.6" y1="71.6" x2="163.2" y2="77.2" stroke="#ffd166" stroke-width="3" stroke-linecap="round"/><line x1="142.0" y1="78.0" x2="142.0" y2="86.0" stroke="#ffd166" stroke-width="3" stroke-linecap="round"/><line x1="126.4" y1="71.6" x2="120.8" y2="77.2" stroke="#ffd166" stroke-width="3" stroke-linecap="round"/><line x1="120.0" y1="56.0" x2="112.0" y2="56.0" stroke="#ffd166" stroke-width="3" stroke-linecap="round"/><line x1="126.4" y1="40.4" x2="120.8" y2="34.8" stroke="#ffd166" stroke-width="3" stroke-linecap="round"/><line x1="142.0" y1="34.0" x2="142.0" y2="26.0" stroke="#ffd166" stroke-width="3" stroke-linecap="round"/><line x1="157.6" y1="40.4" x2="163.2" y2="34.8" stroke="#ffd166" stroke-width="3" stroke-linecap="round"/><g transform="translate(114 80) scale(1)" opacity="1">
    <ellipse cx="-22" cy="4" rx="20" ry="16" fill="#ffffff"/>
    <ellipse cx="10" cy="-6" rx="26" ry="22" fill="#ffffff"/>
    <ellipse cx="34" cy="6" rx="18" ry="15" fill="#ffffff"/>
    <rect x="-40" y="4" width="90" height="18" rx="9" fill="#ffffff"/>
  </g>
  <g>
    <path d="M230 128 c-9-12-17-21-17-32 a17 17 0 1 1 34 0 c0 11-8 20-17 32 z" fill="#ffffff" stroke="#0f6e84" stroke-width="3"/>
    <circle cx="230" cy="96" r="7" fill="#0f6e84"/>
  </g>
</svg>
